<?xml version="1.0" encoding="UTF-8"?>
<svg width="120px" height="42px" viewBox="0 0 120 42" version="1.1" xmlns="http://www.w3.org/2000/svg" xmlns:xlink="http://www.w3.org/1999/xlink">
    <!-- Generator: Sketch 46.2 (44496) - http://www.bohemiancoding.com/sketch -->
    <title>Page 1</title>
    <desc>Created with Sketch.</desc>
    <defs></defs>
    <g id="Page-1" stroke="none" stroke-width="1" fill="none" fill-rule="evenodd">
        <g id="Your-Brand---Large-03b" transform="translate(-1117.000000, -3578.000000)" fill="#02E6A9">
            <g id="footer" transform="translate(182.000000, 3442.000000)">
                <g id="Page-1" transform="translate(935.000000, 136.000000)">
                    <path d="M85.0293518,21.437267 C83.9873665,20.9630588 83.0829328,21.4074027 82.1722718,21.8008869 C79.6080613,22.9087602 77.191476,24.274009 74.9091455,25.8727421 C74.5888023,26.0969955 73.5501139,26.8736471 73.5501139,26.8736471 C73.5501139,26.8736471 74.1759644,24.0982624 77.3812276,20.8555475 C80.5864907,17.6126516 83.0367771,17.276905 83.8386423,17.0902986 C84.7331855,16.8823348 85.139796,17.1646878 85.3308297,18.0640543 C85.5674697,19.1804344 85.4059244,20.276724 85.0293518,21.437267 M80.0676044,30.8855928 C76.2364907,35.5614299 71.8929013,37.1637828 71.8929013,37.1637828 C71.8929013,37.1637828 71.2148507,36.7679457 71.1009265,35.5929231 C70.9870023,34.4177195 71.1597202,33.2868597 71.9256865,32.196543 C72.6044697,31.2302081 73.3616444,30.3017014 74.1886023,29.4560905 C76.8682023,26.715638 80.0569813,24.637629 83.3714065,22.7353665 C83.8166634,22.4798009 84.8919834,21.9440543 84.8919834,21.9440543 C84.8919834,21.9440543 83.8985349,26.2099367 80.0676044,30.8855928 M101.138272,11.7076742 C102.603535,9.51310407 104.242615,8.18152036 104.242615,8.18152036 C104.242615,8.18152036 103.794061,10.1918371 101.962482,12.635276 C100.130903,15.0787149 97.9526065,16.9248688 97.9526065,16.9248688 C97.9526065,16.9248688 99.6730086,13.9022443 101.138272,11.7076742 M104.435114,22.2280362 C106.907745,19.4452308 108.221354,18.7994389 108.221354,18.7994389 C108.221354,18.7994389 108.418798,20.4407059 105.798175,23.1849593 C103.177552,25.9292127 100.939912,27.397086 100.939912,27.397086 C100.939912,27.397086 101.962482,25.0108416 104.435114,22.2280362 M119.378051,21.8902986 C118.367385,21.3027873 116.25356,21.4542805 115.497118,22.0707511 C114.740676,22.6870407 114.028009,23.314009 112.873564,24.1453213 C111.719303,24.9766335 107.632684,28.076181 105.556956,29.4226063 C102.557745,31.3683077 100.574329,31.877629 100.574329,31.877629 C100.574329,31.877629 100.336956,31.6940995 100.147388,31.0562715 C99.957636,30.4182624 100.134933,29.8508416 100.134933,29.8508416 C100.134933,29.8508416 104.915903,27.7936471 108.075377,24.5357285 C111.234851,21.27781 111.533032,20.1932851 111.795314,19.3315656 C112.398819,17.3482172 111.669851,16.4064977 109.577089,16.2231493 C106.10643,16.0591674 100.48971,18.7740995 97.4088107,23.2461357 C94.3279118,27.7181719 94.3249813,29.8298462 94.3249813,29.8298462 L93.5877707,29.7822443 C93.5877707,29.7822443 93.6771518,27.6664072 94.163436,25.6436018 C94.640196,23.6602534 95.5777813,21.7702986 95.607636,21.7044163 C95.6677118,21.5712036 95.7351139,21.4195294 95.8358507,21.3713846 C95.9365876,21.3228778 99.1618149,19.8298462 102.336491,16.8886697 C105.511167,13.9474932 106.602604,12.2678552 107.80815,10.1664977 C108.289672,9.32704072 108.57375,8.42586425 108.663863,7.45862443 C108.730716,6.73971041 108.441693,6.01391855 107.045663,5.68215385 C105.649634,5.35038914 103.356314,5.28142986 101.344324,6.70604525 C100.211859,7.5080362 98.1418086,8.69862443 93.0608255,16.555457 C91.5501392,18.8915656 90.2603413,21.796543 90.2603413,21.796543 L89.5788107,21.8057738 C89.5788107,21.8057738 89.6398023,21.1413394 89.6555539,20.8832398 C89.8407265,17.8061357 87.9792928,15.8213394 84.875316,15.8687602 C82.6999497,15.9020633 80.6940044,16.5831493 78.813156,17.6436018 C78.5862234,17.7713846 77.5033939,18.5026063 77.5033939,18.5026063 C77.5033939,18.5026063 80.5608486,14.0202534 82.1585349,12.0470407 C84.2795034,9.4278552 87.1840213,5.99509502 88.0494423,5.02224434 C88.9148634,4.04939367 89.3146971,3.67002715 89.4321013,3.51075113 C89.9348697,2.8278552 89.8323013,2.48070588 89.0002149,2.21373756 C87.8530971,1.84577376 86.7274086,1.96106787 85.7680276,2.6801629 C84.8174381,3.39310407 83.8673981,4.14351131 83.0723097,5.0159095 C80.1985623,8.16975566 77.3660255,11.3532851 73.6722802,16.7226968 C69.9785349,22.0922896 68.0742423,26.6877647 68.0742423,26.6877647 C68.0742423,26.6877647 67.9665455,26.6432398 67.5652465,26.6432398 C67.1639476,26.6432398 67.0022192,26.8560905 67.0022192,26.8560905 C67.0022192,26.8560905 67.2923413,25.4407059 68.4828676,22.6502986 C69.6733939,19.8600724 71.0012886,17.5371765 71.1106339,16.5011584 C71.2199792,15.4647783 70.9710676,14.9853213 70.0474023,14.676 C69.7050802,14.5612489 69.3369328,14.4960905 68.9757455,14.4662262 C67.6168971,14.3538281 66.4221581,14.7476742 65.3691834,15.6135566 C63.3081076,17.3085792 61.5351392,19.2609774 59.9753665,21.4102986 C59.6541076,21.8530136 58.2335349,23.7779005 58.2335349,23.7779005 C58.2335349,23.7779005 59.6759034,20.4859548 60.6374823,19.0606154 C61.5990613,17.635276 62.0161118,17.0256833 62.2457918,16.554371 C62.6894002,15.6441448 62.4082528,15.0231493 61.4162697,14.7516561 C60.9748592,14.6309321 60.4968171,14.6048688 60.0347097,14.6010679 C58.6868507,14.5902081 57.512076,15.116181 56.3922486,15.8032398 C53.5725328,17.5333756 51.0517307,19.6122896 48.8505392,22.0698462 C48.5986971,22.3511131 47.5761265,23.4611584 47.5761265,23.4611584 C47.5761265,23.4611584 48.1484949,22.2168145 48.6292844,21.3004344 C49.1100739,20.3842353 50.2548107,18.4271312 51.1440423,17.0446878 C52.0307097,15.6664072 52.0261307,15.4955475 52.3554486,14.6716561 C52.7126065,13.7789864 52.4162571,13.3415204 51.4848992,13.0709321 C50.4035349,12.756905 49.7395876,12.9520181 48.3728634,13.3769955 C47.0061392,13.8016109 44.2448507,15.4407059 41.5280697,17.6126516 C38.8112886,19.7845973 35.1213897,24.3094842 34.0367286,26.2437828 C32.9520676,28.1780814 33.0086634,28.4790769 33.019836,28.8917466 C33.0273455,29.1674027 32.9883328,29.4512036 33.4907349,29.7274027 C33.8048507,29.8998914 34.9521518,30.1478552 35.8668423,29.9219729 C36.4155834,29.7864072 36.7859286,29.4792579 37.0738528,28.9317466 C37.3617771,28.3845973 42.0423771,22.0731041 45.0716255,19.0823348 C45.3115623,18.8455928 47.0151139,17.19419 47.0151139,17.19419 C47.0151139,17.19419 45.6643244,18.8796199 44.2234213,20.9442353 C42.7827013,23.0090317 41.3830086,26.7302986 41.2679855,28.2144615 C41.1527792,29.6986244 41.4150613,29.9909321 42.6598023,30.2736471 C44.2767202,30.6410679 45.7896044,30.4093937 47.0640171,29.3100271 C47.9902465,28.5111131 48.8840571,27.6673122 49.7236528,26.7802534 C50.9740718,25.4588054 52.1622171,24.0801629 53.3818655,22.7301176 C53.5351686,22.5605249 54.5797181,21.3818824 54.5797181,21.3818824 C54.5797181,21.3818824 53.6044023,23.1217919 53.2184886,24.0901176 C52.8327581,25.0584434 52.4332907,26.154371 52.0398676,27.6088507 C51.6383855,29.0922896 52.180716,29.7746425 53.6556865,30.0950045 C55.6717055,30.5328326 57.3604213,29.8825158 58.7295265,28.4678552 C59.6449497,27.5217919 60.452676,26.4635113 61.2278002,25.397991 C62.1793055,24.0899367 63.034836,22.71419 63.9553876,21.3838733 C64.3812297,20.7688507 66.3611665,18.3516561 66.3611665,18.3516561 C66.3611665,18.3516561 65.0895013,20.3464072 64.9125707,20.6805249 C64.2345202,21.9619729 63.4958444,23.2175385 62.9073581,24.5382624 C62.4956192,25.4618824 62.2234465,26.4617014 62.0131813,27.4531946 C61.8120739,28.4014299 62.1435897,28.8569955 63.0747644,29.1695747 C63.9068507,29.4486697 64.5601749,29.4528326 65.6345792,29.3610679 C66.7093497,29.2691222 67.7288065,28.394009 67.7288065,28.394009 C67.7288065,28.394009 67.5967497,29.6028778 67.8112276,29.9203439 C67.9046381,30.0586244 68.2073981,30.274552 68.5048465,30.3840543 C68.9107244,30.5331946 69.3222802,30.5538281 69.3222802,30.5538281 C69.3222802,30.5538281 68.4498992,31.5391674 68.1262592,31.9538281 C67.4619455,32.8046878 67.0608297,33.7681267 66.8699792,34.8231493 C66.5373644,36.6609774 67.2960044,38.0548235 69.0524886,38.7798914 C70.182756,39.2468597 71.3687034,39.3456833 72.5802928,39.2450498 C74.2061855,39.1096652 75.6785918,38.5281267 77.0953181,37.7664977 C82.7239434,34.7402534 86.5198907,30.1521991 88.8547876,24.314914 C88.9786023,24.0052308 89.2538886,23.3699367 89.2538886,23.3699367 C89.2538886,23.3699367 89.8370634,23.2993484 89.8011644,23.4054118 C85.320756,36.6321991 90.2861665,41.0450498 93.8828381,41.8609774 C94.7348886,42.0542805 95.6070865,42.0653213 96.4464992,41.7699367 C97.4022171,41.4334661 97.5174234,40.9800724 96.8197749,40.2718371 C93.1633939,37.1601629 93.5238486,30.8796199 93.5238486,30.8796199 C93.5238486,30.8796199 94.1901771,30.9234208 94.2696676,30.9284887 C94.3491581,30.9339186 94.3138086,30.9893032 94.3997097,31.27781 C94.8286655,32.5699367 96.1930086,33.9248688 98.0932718,34.2642353 C99.9935349,34.6036018 103.023333,34.6412489 106.627331,32.9268597 C110.231145,31.2124706 115.529537,27.6546425 119.061737,23.797267 C119.284457,23.5538281 119.505162,23.3018824 119.68191,23.0256833 C120.00848,22.515819 119.910857,22.1999819 119.378051,21.8902986" id="Fill-1"></path>
                    <path d="M32.4198207,18.3409346 C30.6872066,18.3409346 29.9267917,19.0700888 28.9956714,19.8978364 C27.0388581,21.6377103 25.0804017,23.3753972 23.1128166,25.1030607 C20.090327,27.7570654 16.9190407,30.2045888 13.2622938,31.9451916 C12.2174307,32.442715 10.881912,33.0789252 9.82445145,33.4055047 C8.76699087,33.7319019 7.96695768,33.8150047 7.5574473,33.5724393 C6.96153029,33.2194346 6.62267552,32.8966822 6.62267552,31.4068458 C6.62267552,29.9171916 8.21927303,27.144729 9.95444315,24.9348505 C11.6896133,22.724972 16.8914722,16.608715 22.0035054,12.3260047 C27.1155386,8.04329439 31.9204846,5.11136916 35.0118041,3.71502336 C35.7001029,3.40429907 37.8121029,2.69191121 37.8121029,2.69191121 C37.8121029,2.69191121 38.3286008,3.22150935 37.9203685,4.45602336 C37.5121361,5.69053738 35.6340116,9.4328972 34.7439701,11.1430654 C33.2826589,13.9507009 31.7527004,16.6641168 31.6599535,16.8323271 C31.5106091,17.1029579 31.6798539,17.4231589 32.1591071,17.6338318 C32.6383602,17.8445047 32.8893975,17.9299766 32.8893975,17.9299766 C32.8893975,17.9299766 32.5823104,18.3402056 32.4198207,18.3409346 M37.2561693,20.0181168 C38.3160033,18.5421308 39.3028083,17.5596589 39.5211651,17.322743 C39.9759535,16.829229 39.7999535,16.3856495 39.1001527,16.0362897 C38.4001693,15.6869299 37.5539452,15.6985935 37.5539452,15.6985935 C37.5539452,15.6985935 41.2145261,9.56101402 42.6851485,7.00578505 C43.0795054,6.3205514 43.4324183,5.5952243 43.6834556,4.84802804 C44.1970324,3.31919159 43.7141278,1.99829439 42.3318705,1.17273364 C41.7448996,0.822098131 41.0759535,0.553836449 40.4090158,0.400934579 C38.4574971,-0.0466542056 36.511273,0.115542056 34.6136133,0.713116822 C31.2117378,1.78434112 28.0170822,3.30953271 24.9891154,5.18882243 C20.4890656,7.98151402 16.4071071,11.3016168 12.5604846,14.9269766 C9.05436017,18.2310421 5.7707917,21.7326589 2.88760498,25.5965748 C1.87432697,26.9546495 0.966210788,28.379972 0.353862241,29.9691308 C-0.522851452,32.2444346 0.250160996,34.3076075 2.44194523,35.3788318 C3.20674191,35.7527944 4.04639336,36.0265234 4.88239336,36.1956449 C8.71039336,36.9705421 12.4067585,36.4385748 15.9813477,34.9361636 C19.240634,33.5660607 22.2633062,31.7913785 25.0440697,29.607014 C25.3077046,29.399986 26.3016299,28.553285 26.3016299,28.553285 C26.3016299,28.553285 25.708634,29.7309393 25.5934307,30.0358318 C24.9617295,31.7082757 24.3077544,33.3727009 23.7164017,35.0591776 C23.488551,35.7092383 23.3598373,36.4034019 23.2680033,37.0884533 C23.170327,37.8156028 23.3560033,38.1257804 24.0437544,38.4066168 C25.4243685,38.9704766 26.8237876,38.961 28.210244,38.4049766 C28.7137793,38.2028692 29.0781942,37.9311449 29.0577461,37.2774393 C29.0372979,36.6237336 29.559273,34.9751636 30.3109245,32.9338598 C31.2058954,30.5031028 32.4773311,27.8113738 33.4004183,26.2242196 C34.8164515,23.7896355 36.1097959,21.6151121 37.2561693,20.0181168" id="Fill-4"></path>
                </g>
            </g>
        </g>
    </g>
</svg>