<?xml version="1.0" encoding="utf-8"?>
<!-- Generator: Adobe Illustrator 21.1.0, SVG Export Plug-In . SVG Version: 6.00 Build 0)  -->
<svg version="1.1" id="Layer_1" xmlns="http://www.w3.org/2000/svg" xmlns:xlink="http://www.w3.org/1999/xlink" x="0px" y="0px"
	 viewBox="0 0 58.6 25" style="enable-background:new 0 0 58.6 25;" xml:space="preserve">
<style type="text/css">
	.st0{fill:#231F20;}
</style>
<g>
	<path class="st0" d="M32.9,4c-3.1,0-2.7,2.2-4.2,2.2c-1.5,0,0.8-2.2-2.2-2.2s-2.3,2.2-3.9,2.2C21,6.2,22.4,4,20.1,4
		c-0.8,0-2.3,0.4-4.6,1.3c-0.2,0.1-0.4-0.1-0.3-0.3c0,0,0.5-4.8-3.5-4.8C5.4,0.2-3.1,12.4,1.1,13.6c1.6,0.4,2.6-0.6,2.9-1
		c0.3-0.4,2.7-1.5,5-2.2c0.4-0.1,0.7,0.4,0.6,0.7C9.1,12,4.6,20.9,4,22.5c-0.6,1.6,0.4,2,1.3,2.3c0.8,0.3,2.3,0.4,2.7-0.9
		c0.4-1.3,4.4-15.1,7-15.1c2.3,0-1.1,4.9,1.9,4.9s2.5-2.2,4-2.2c1.5,0-0.3,2.2,2.1,2.2s2.5-2.2,4-2.2c1.5,0-0.9,2.2,2.1,2.2
		S36,4,32.9,4z M11.9,6.4c-0.1,0.2-0.2,0.3-0.4,0.4c-1.9,0.8-4,1.8-5.6,2.5C5.4,9.4,5,9,5.3,8.6c1.9-2.8,4.6-6.8,6.1-6.8
		C13,1.8,12.8,4,11.9,6.4z"/>
	<path class="st0" d="M58.4,6.6C58.2,6.5,58,6.5,57.7,7c-0.3,0.5-2.1,3-3,2.5c-0.5-0.3,1-2.2,1.6-3.8c0.2-0.5,0.2-2-1.6-2
		c-3.1,0-5.1,5-6.7,5c-2.9,0,4.2-8.7,1.1-8.7c-1,0-2.5,2.1-3.5,4.4c-0.1,0.2-0.2,0.5-0.6,0.2c-0.5-0.3-1.2-0.8-2.1,0
		s-3.4,2.8-4.5,1.6C37.3,5.1,41.9,0,38.9,0c-1.4,0-3.9,4.4-4.6,7.2l0,0c-0.7,2.8-1.8,6.8,1,6.8c4.2,0,6.2-7.3,8.2-7.3
		c2,0-2.8,7.3,2,7.3c1.4,0,3.1-1.7,4.5-3.4c-0.2,1.8,0,3.5,1.8,3.5c3.9,0,6.6-6.5,6.7-6.9C58.7,6.8,58.5,6.6,58.4,6.6z M53.7,7
		c-0.5-0.2,0.1-1.2,0.3-1.5c0.2-0.3,0.5-0.5,0.7-0.4C55,5.2,55,5.5,54.9,5.8C54.7,6,54.2,7.2,53.7,7z"/>
</g>
</svg>
