<?xml version="1.0" encoding="UTF-8"?>
<svg width="83px" height="144px" viewBox="0 0 83 144" version="1.1" xmlns="http://www.w3.org/2000/svg" xmlns:xlink="http://www.w3.org/1999/xlink">
    <!-- Generator: Sketch 46.2 (44496) - http://www.bohemiancoding.com/sketch -->
    <title>Combined Shape@2x</title>
    <desc>Created with Sketch.</desc>
    <defs></defs>
    <g id="Page-1" stroke="none" stroke-width="1" fill="none" fill-rule="evenodd">
        <g id="Home---Large" transform="translate(-988.000000, -245.000000)" fill="#03FCBA">
            <g id="Intro-pew">
                <g id="icon-money" transform="translate(937.000000, 245.000000)">
                    <path d="M87.1668616,128.482919 C64.37505,126.056313 52.6615093,112.110179 51,94.1526486 L65.6470588,92.0216216 C67.6305147,105.264432 75.8694853,116.985081 94.9411765,116.985081 C106.689338,116.985081 119.047794,112.114162 119.047794,98.4147027 C119.047794,85.6285405 111.113971,81.5187027 98.4503676,78.931027 L82.7352941,75.7344865 C67.3253676,72.5379459 55.5772059,64.4704865 55.5772059,45.9001081 C55.5772059,29.440258 67.6716639,17.8822747 87.1668616,15.9088846 L87.1668616,0 L99.3033924,0 L99.3033924,15.8752626 C117.803516,17.5542044 131.458466,27.2272076 133.389706,46.3567568 L118.895221,49.4010811 C117.064338,34.9405405 108.977941,27.0252973 92.9577206,27.0252973 C79.6838235,27.0252973 70.5294118,33.5705946 70.5294118,44.5301622 C70.5294118,55.0330811 76.1746324,60.5128649 88.2279412,63.1005405 L104.095588,66.4492973 C120.878676,69.9502703 134,77.4088649 134,97.0447568 C134,112.758483 122.980949,126.997506 99.3033924,128.689971 L99.3033924,144 L87.1668616,144 L87.1668616,128.482919 Z" id="Combined-Shape"></path>
                </g>
            </g>
        </g>
    </g>
</svg>